<?xml version="1.0" standalone="no"?>
<!DOCTYPE svg PUBLIC "-//W3C//DTD SVG 20010904//EN"
 "http://www.w3.org/TR/2001/REC-SVG-20010904/DTD/svg10.dtd">
<svg version="1.0" xmlns="http://www.w3.org/2000/svg"
 width="300.000000pt" height="300.000000pt" viewBox="0 0 300.000000 300.000000"
 preserveAspectRatio="xMidYMid meet">
<metadata>
Created by potrace 1.10, written by Peter Selinger 2001-2011
</metadata>
<g transform="translate(0.000000,300.000000) scale(0.100000,-0.100000)"
fill="#000000" stroke="none">
<path d="M1443 2130 c-149 -22 -266 -141 -294 -298 -28 -156 69 -325 219 -383
80 -31 187 -31 266 0 80 32 166 118 197 197 27 71 30 186 6 252 -61 162 -220
257 -394 232z m170 -37 c26 -9 47 -21 47 -25 0 -4 6 -8 14 -8 8 0 16 -7 20
-15 3 -8 12 -15 19 -15 8 0 22 -15 32 -34 11 -19 22 -33 26 -30 4 2 19 -25 34
-60 24 -56 27 -74 23 -143 -4 -84 -39 -180 -60 -167 -6 4 -8 3 -5 -3 10 -16
-64 -87 -119 -114 -83 -40 -284 -35 -284 7 0 7 -6 11 -14 8 -8 -3 -17 -1 -21
5 -3 6 2 11 13 11 11 0 25 6 31 14 15 18 63 27 78 14 16 -13 49 -2 58 19 5 15
4 15 -13 0 -24 -22 -38 -21 -55 3 -12 18 -16 19 -27 5 -7 -8 -17 -12 -22 -9
-5 3 -16 -4 -25 -15 -9 -14 -21 -20 -33 -16 -12 4 -20 0 -23 -12 -4 -16 -5
-15 -6 2 -1 11 -15 33 -31 49 -28 27 -41 76 -22 76 15 0 43 -37 51 -66 5 -22
14 -30 34 -32 36 -4 37 26 2 58 -14 13 -25 19 -25 13 0 -5 9 -18 20 -28 20
-18 19 -35 -2 -35 -6 0 -9 3 -5 6 3 3 -7 24 -23 47 -29 43 -32 66 -4 31 15
-19 16 -19 8 1 -34 94 -43 126 -38 139 7 19 25 21 42 4 21 -21 13 -32 -9 -12
l-22 19 6 -40 c6 -48 25 -100 34 -92 3 3 -2 25 -11 48 -9 23 -14 44 -12 47 6
5 26 -40 41 -87 5 -16 4 -21 -4 -17 -18 11 -13 -10 9 -35 l20 -24 -6 35 c-7
42 -19 88 -30 114 -5 14 -4 17 4 12 22 -14 12 15 -14 39 -45 42 -72 10 -55
-66 15 -61 14 -69 -8 -69 -22 0 -34 -24 -26 -54 5 -17 4 -18 -4 -6 -6 8 -11
23 -11 33 0 9 -4 17 -9 17 -17 0 -33 90 -29 162 4 74 40 174 59 163 5 -4 6 2
2 11 -5 13 -3 16 10 11 12 -4 17 -1 17 12 0 21 73 76 127 96 54 19 168 19 226
-2z"/>
<path d="M1355 1929 c-15 -16 -17 -30 -11 -94 4 -42 10 -83 13 -92 5 -12 3
-14 -6 -8 -10 5 -11 2 -7 -13 4 -12 13 -49 20 -84 8 -41 18 -64 28 -66 24 -5
28 20 25 161 -3 125 -16 187 -39 187 -18 0 -11 -124 12 -213 18 -67 17 -127 0
-127 -5 0 -7 17 -5 38 2 20 -3 62 -10 92 -22 88 -29 184 -15 209 11 22 12 22
31 5 29 -26 39 -78 39 -210 0 -104 3 -125 19 -145 l18 -23 18 28 c21 32 45
128 44 176 -1 26 -4 20 -10 -23 -10 -67 -25 -126 -38 -146 -8 -12 -12 -12 -24
-3 -11 10 -15 40 -16 130 -2 132 -8 177 -28 209 -20 31 -38 35 -58 12z m49
-139 c4 -57 3 -81 -4 -74 -14 14 -26 182 -12 169 6 -5 13 -48 16 -95z"/>
<path d="M1552 1780 c0 -19 2 -27 5 -17 2 9 2 25 0 35 -3 9 -5 1 -5 -18z"/>
<path d="M1181 1724 c0 -11 3 -14 6 -6 3 7 2 16 -1 19 -3 4 -6 -2 -5 -13z"/>
<path d="M1533 1677 c-7 -35 -15 -73 -19 -83 -4 -15 -3 -16 4 -4 13 20 36 124
31 139 -3 7 -10 -17 -16 -52z"/>
<path d="M1250 1616 c0 -14 39 -67 40 -53 0 11 -29 67 -35 67 -3 0 -5 -6 -5
-14z"/>
<path d="M1115 1378 c-3 -8 -4 -59 -3 -114 2 -80 6 -99 18 -99 11 0 16 16 20
60 4 46 9 61 22 63 14 3 17 -7 20 -60 2 -48 7 -63 18 -63 11 0 16 15 18 63 3
74 -8 96 -49 90 -26 -4 -28 -1 -31 31 -3 35 -24 54 -33 29z"/>
<path d="M935 1370 c-10 -16 4 -30 30 -30 24 0 24 -3 27 -87 2 -70 6 -88 18
-88 12 0 16 18 18 87 3 81 4 87 25 90 12 2 23 11 25 21 3 15 -5 17 -67 17 -38
0 -73 -4 -76 -10z"/>
<path d="M1520 1353 c-19 -24 -21 -38 -18 -91 5 -77 22 -97 79 -96 45 2 65 15
56 38 -5 12 -11 13 -37 3 -28 -11 -33 -10 -46 7 -19 27 -18 100 2 120 18 18
40 21 49 6 9 -15 25 -12 32 6 8 21 -14 34 -59 34 -28 0 -42 -6 -58 -27z"/>
<path d="M1285 1304 c-11 -12 -15 -31 -13 -68 3 -44 6 -52 31 -64 32 -16 82
-4 82 19 0 10 -10 13 -37 11 -30 -3 -38 0 -38 13 0 11 5 15 15 11 8 -3 26 -1
40 4 32 12 35 64 6 80 -29 15 -67 12 -86 -6z m63 -31 c-5 -26 -38 -29 -38 -4
0 15 6 21 21 21 14 0 19 -5 17 -17z"/>
<path d="M1680 1305 c-14 -17 -1 -25 39 -22 16 1 26 -5 32 -20 7 -20 6 -21
-10 -11 -52 32 -108 -36 -61 -74 15 -12 31 -17 44 -13 26 8 37 9 56 4 12 -3
14 6 12 51 -5 73 -23 100 -66 100 -18 0 -39 -7 -46 -15z m70 -90 c0 -9 -9 -15
-25 -15 -24 0 -32 10 -18 23 12 13 43 7 43 -8z"/>
<path d="M1826 1310 c-1 -3 0 -36 3 -75 5 -53 10 -70 21 -70 11 0 16 14 18 57
3 50 6 57 25 60 12 2 23 11 25 20 3 14 -5 16 -43 15 -26 -1 -48 -4 -49 -7z"/>
<path d="M1955 1304 c-11 -12 -15 -31 -13 -68 3 -44 6 -52 31 -64 32 -16 82
-4 82 19 0 10 -10 13 -37 11 -28 -3 -38 0 -38 11 0 9 11 14 30 15 16 0 34 3
40 7 14 9 13 58 -2 73 -17 17 -74 15 -93 -4z m63 -31 c-5 -26 -38 -29 -38 -4
0 15 6 21 21 21 14 0 19 -5 17 -17z"/>
<path d="M957 1092 c-23 -25 -23 -138 -1 -170 19 -27 94 -31 114 -7 20 24 -1
39 -33 24 -40 -18 -57 2 -57 66 0 64 17 84 57 66 32 -15 53 0 33 24 -18 22
-92 20 -113 -3z"/>
<path d="M1116 1034 c-10 -9 -16 -33 -16 -59 0 -53 19 -75 65 -75 46 0 65 22
65 75 0 53 -19 75 -65 75 -18 0 -41 -7 -49 -16z m69 -59 c0 -33 -3 -40 -20
-40 -15 0 -21 8 -23 28 -5 39 5 59 25 55 14 -2 18 -13 18 -43z"/>
<path d="M1261 980 c-1 -46 3 -71 13 -79 22 -18 38 12 35 66 -3 42 -1 48 16
48 17 0 20 -8 23 -57 3 -49 6 -58 22 -58 16 0 19 9 22 57 2 46 7 59 21 61 15
3 17 -5 17 -57 0 -54 2 -61 20 -61 18 0 20 7 20 64 0 39 -5 68 -13 74 -6 6
-53 10 -103 10 l-92 -1 -1 -67z"/>
<path d="M1507 1044 c-1 -1 0 -49 3 -106 4 -83 8 -103 20 -103 10 0 16 12 18
33 3 29 6 32 37 32 41 0 55 20 55 79 0 55 -19 71 -81 69 -28 -1 -51 -3 -52 -4z
m88 -69 c0 -34 -3 -40 -22 -43 -21 -3 -23 1 -23 36 0 43 7 54 30 50 10 -2 15
-15 15 -43z"/>
<path d="M1680 1035 c-14 -17 -1 -25 39 -22 13 1 26 -4 28 -10 3 -9 -6 -13
-25 -13 -30 0 -62 -22 -62 -41 0 -6 5 -19 10 -29 9 -16 21 -19 75 -19 60 1 79
9 55 24 -5 3 -10 24 -10 46 0 61 -14 79 -59 79 -22 0 -44 -6 -51 -15z m70 -90
c0 -16 -35 -21 -44 -6 -8 12 4 21 26 21 10 0 18 -7 18 -15z"/>
<path d="M1827 1044 c-1 -1 -1 -34 1 -73 3 -61 6 -71 22 -71 16 0 19 9 22 58
3 50 6 57 26 60 12 2 22 10 22 17 0 11 -12 14 -46 13 -25 -2 -46 -3 -47 -4z"/>
<path d="M1956 1034 c-21 -21 -21 -97 0 -119 23 -22 98 -17 102 7 3 14 -3 17
-34 15 -22 -1 -39 3 -41 11 -3 7 5 12 20 12 14 0 32 3 41 6 19 7 21 55 4 72
-17 17 -74 15 -92 -4z m64 -29 c0 -8 -9 -15 -20 -15 -11 0 -20 7 -20 15 0 8 9
15 20 15 11 0 20 -7 20 -15z"/>
</g>
</svg>
